<?xml version="1.0" encoding="UTF-8" standalone="no"?>
<!-- Created with Inkscape (http://www.inkscape.org/) -->

<svg
   width="64mm"
   height="64mm"
   viewBox="0 0 64 64"
   version="1.1"
   id="svg1"
   sodipodi:docname="plywood-plane.svg"
   inkscape:version="1.4.4 (dcaf3e7d9e, 2026-05-05)"
   xmlns:inkscape="http://www.inkscape.org/namespaces/inkscape"
   xmlns:sodipodi="http://sodipodi.sourceforge.net/DTD/sodipodi-0.dtd"
   xmlns="http://www.w3.org/2000/svg"
   xmlns:svg="http://www.w3.org/2000/svg">
  <sodipodi:namedview
     id="namedview1"
     pagecolor="#ffffff"
     bordercolor="#666666"
     borderopacity="1.0"
     inkscape:showpageshadow="2"
     inkscape:pageopacity="0.0"
     inkscape:pagecheckerboard="0"
     inkscape:deskcolor="#d1d1d1"
     inkscape:document-units="mm"
     inkscape:zoom="5.3524899"
     inkscape:cx="122.37295"
     inkscape:cy="137.03903"
     inkscape:window-width="3840"
     inkscape:window-height="2090"
     inkscape:window-x="0"
     inkscape:window-y="1539"
     inkscape:window-maximized="1"
     inkscape:current-layer="layer1" />
  <defs
     id="defs1" />
  <g
     inkscape:label="Layer 1"
     inkscape:groupmode="layer"
     id="layer1">
    <path
       style="fill:#967832;fill-opacity:1;stroke:#000000;stroke-width:0.322619px;stroke-linecap:butt;stroke-linejoin:miter;stroke-opacity:1"
       d="M 10.011201,46.930148 C 8.2763027,41.516684 9.1551805,35.582579 9.4469222,30.016699 9.7117787,24.963716 9.2952623,20.072636 12.268315,15.81342 c 1.354105,-1.9399 2.597849,-4.024101 4.822018,-5.169392 0.563906,-0.290371 1.118901,-0.16958 1.641538,-0.451694 1.588554,-0.8574833 2.91557,-1.6615033 4.770719,-1.8569663 3.167504,-0.333735 6.557135,0.341066 9.695333,-0.200753 4.715381,-0.8141232 10.216563,-4.951838 15.132931,-3.2120493 0.864949,0.3060867 1.327102,1.9198261 1.59024,2.6599786 0.464819,1.3074547 1.181297,2.530847 1.590239,3.864497 0.694139,2.263738 -0.05347,4.729036 0.307787,7.026358 0.287579,1.828806 1.763502,1.956767 2.616201,3.312426 0.653054,1.038253 1.028952,2.246942 1.641539,3.312425 0.769838,1.338993 1.66211,2.606707 2.308413,4.015063 0.519072,1.131104 0.278249,2.098742 0.410384,3.262235 0.219451,1.932332 1.542005,3.873106 1.179855,5.821841 -0.165881,0.892619 -0.711972,1.675515 -1.07726,2.509411 -0.616429,1.40722 -0.940078,2.984727 -1.846728,4.266004 -0.491066,0.693969 -1.288684,1.121427 -1.795433,1.806777 -0.936836,1.267022 -1.517342,2.220253 -2.718797,3.212052 -1.711245,1.412622 -3.936977,2.702747 -5.950575,3.663742 -1.128273,0.53847 -2.444845,0.657577 -3.590864,1.204517 -1.013669,0.483775 -1.999061,1.485268 -3.129184,1.706402 -0.60347,0.118088 -2.007967,-0.198452 -2.872692,-0.150565 -1.955092,0.10827 -3.992181,0.311463 -5.950573,0.05019 -1.853239,-0.247247 -3.393065,-1.056508 -5.129806,-1.656212 -0.374006,-0.129148 -0.959853,0.1723 -1.179856,-0.150565 -0.277317,-0.406975 -4.64099,-1.513526 -5.694085,-1.856965 -0.538457,-0.1756 -0.956819,-0.389867 -1.436345,-0.702634 -0.995598,-0.649373 -2.036499,-1.279274 -3.026586,-1.957344 -0.91392,-0.625902 -5.0768182,-1.71136 -4.565527,-3.212046 z"
       id="path1" />
    <path
       style="fill:#e6c8b4;stroke:#000000;stroke-width:0.323127;stroke-linecap:butt;stroke-linejoin:miter;stroke-dasharray:none;stroke-opacity:1;fill-opacity:1"
       d="M 6.676006,50.038461 C 4.9411082,44.624997 5.819986,38.690892 6.1117277,33.125013 6.3765842,28.07203 5.9600678,23.18095 8.9331204,18.921734 c 1.3541056,-1.9399 2.5978496,-4.024102 4.8220186,-5.169392 0.563906,-0.290371 1.1189,-0.169581 1.641537,-0.451694 1.588555,-0.857483 2.91557,-1.661503 4.77072,-1.856966 3.167504,-0.333735 6.557134,0.341066 9.695332,-0.200753 4.715381,-0.814123 10.216564,-4.9518392 15.132931,-3.2120505 0.864949,0.3060872 1.327102,1.9198272 1.59024,2.6599795 0.46482,1.307455 1.181298,2.530847 1.590239,3.864497 0.694139,2.263738 -0.05346,4.729036 0.307787,7.026358 0.287579,1.828806 1.763503,1.956767 2.616202,3.312425 0.653054,1.038254 1.028951,2.246942 1.641539,3.312426 0.769838,1.338993 1.662109,2.606707 2.308413,4.015063 0.519072,1.131103 0.278249,2.098742 0.410383,3.262235 0.219452,1.932332 1.542006,3.873106 1.179855,5.821841 -0.165881,0.892619 -0.711972,1.675515 -1.07726,2.509411 -0.616429,1.40722 -0.940078,2.984727 -1.846727,4.266003 -0.491066,0.69397 -1.288685,1.121427 -1.795434,1.806778 -0.936836,1.267022 -1.517342,2.220252 -2.718796,3.212051 -1.711245,1.412622 -3.936977,2.702748 -5.950575,3.663742 -1.128274,0.538471 -2.444845,0.657578 -3.590865,1.204518 -1.013669,0.483775 -1.99906,1.485268 -3.129184,1.706402 -0.60347,0.118088 -2.007967,-0.198452 -2.872691,-0.150566 -1.955093,0.108271 -3.992181,0.311464 -5.950574,0.05018 -1.853239,-0.247246 -3.393065,-1.056507 -5.129806,-1.656211 -0.374006,-0.129148 -0.959852,0.1723 -1.179855,-0.150566 -0.277317,-0.406969 -4.640991,-1.51352 -5.694085,-1.856959 -0.538457,-0.175601 -0.956819,-0.389867 -1.436345,-0.702634 -0.995598,-0.649373 -2.0365,-1.279275 -3.026586,-1.957344 -0.913921,-0.625902 -5.0768188,-1.71136 -4.565528,-3.212047 z"
       id="path1-3" />
    <path
       sodipodi:type="star"
       style="fill:#967832;fill-opacity:1;stroke:#000000;stroke-width:0.264999;stroke-linejoin:round;stroke-dasharray:none;stroke-opacity:1;paint-order:markers stroke fill"
       id="path5-1"
       inkscape:flatsided="false"
       sodipodi:sides="5"
       sodipodi:cx="26.881664"
       sodipodi:cy="17.394018"
       sodipodi:r1="16.384172"
       sodipodi:r2="8.1920862"
       sodipodi:arg1="0.95320405"
       sodipodi:arg2="1.5815226"
       inkscape:rounded="0"
       inkscape:randomized="0"
       d="m 36.369311,30.751625 -9.575516,-5.165992 -9.684126,4.959401 1.954154,-10.703236 -7.70923,-7.677613 10.783248,-1.448971 4.919561,-9.7044258 4.71026,9.8077218 10.749686,1.679948 -7.872148,7.510477 z"
       inkscape:transform-center-x="-0.049811434"
       inkscape:transform-center-y="-1.4366779"
       transform="matrix(0.91724181,0,0,0.94967487,7.5936318,17.358237)" />
    <path
       sodipodi:type="star"
       style="fill:#ffffff;fill-opacity:1;stroke:#000000;stroke-width:0.264999;stroke-linejoin:round;stroke-dasharray:none;stroke-opacity:1;paint-order:markers stroke fill"
       id="path5-1-3"
       inkscape:flatsided="false"
       sodipodi:sides="5"
       sodipodi:cx="26.881664"
       sodipodi:cy="17.394018"
       sodipodi:r1="16.384172"
       sodipodi:r2="8.1920862"
       sodipodi:arg1="0.95320405"
       sodipodi:arg2="1.5815226"
       inkscape:rounded="0"
       inkscape:randomized="0"
       d="m 36.369311,30.751625 -9.575516,-5.165992 -9.684126,4.959401 1.954154,-10.703236 -7.70923,-7.677613 10.783248,-1.448971 4.919561,-9.7044258 4.71026,9.8077218 10.749686,1.679948 -7.872148,7.510477 z"
       inkscape:transform-center-x="-0.039764677"
       inkscape:transform-center-y="-1.1430998"
       transform="matrix(0.73223871,0,0,0.75561297,13.507157,19.475927)" />
  </g>
</svg>
